<svg version="1.1" id="Layer_1" xmlns="http://www.w3.org/2000/svg" xmlns:xlink="http://www.w3.org/1999/xlink" x="0px" y="0px"
	 width="100%" viewBox="0 0 1080 1080" enable-background="new 0 0 1080 1080" xml:space="preserve">
<path fill="#FFFFFF" opacity="1.000000" stroke="none" 
	d="
M522.000000,1081.000000 
	C349.519836,1081.000000 177.539688,1080.987305 5.559595,1081.087402 
	C1.919264,1081.089600 0.896389,1080.447876 0.897589,1076.560547 
	C1.007828,719.601746 1.009809,362.642975 0.881230,5.684213 
	C0.879719,1.491153 1.897286,0.897458 5.814765,0.898656 
	C362.606873,1.007827 719.399048,1.007917 1076.191162,0.897811 
	C1080.120972,0.896598 1081.119629,1.509711 1081.118042,5.690150 
	C1080.990356,362.482239 1080.989136,719.274414 1081.124756,1076.066528 
	C1081.126343,1080.474731 1079.989502,1081.100830 1075.934570,1081.098389 
	C891.456360,1080.984985 706.978210,1081.000000 522.000000,1081.000000 
z"/>
<path fill="#050505" opacity="1.000000" stroke="none" 
	d="
M472.325623,375.694336 
	C475.050201,378.565979 477.522400,381.189301 479.994629,383.812653 
	C480.440948,383.583099 480.887238,383.353546 481.333557,383.123993 
	C480.099426,375.061157 478.868927,366.997803 477.628754,358.935883 
	C477.299957,356.798645 476.976166,354.659637 476.590302,352.532288 
	C474.900391,343.214996 474.941254,343.325439 483.569977,339.463196 
	C485.890961,338.424347 486.466278,339.043457 486.798523,341.153351 
	C489.541382,358.571930 492.261261,375.994476 495.125671,393.393188 
	C495.530457,395.851746 494.665100,396.879456 492.630005,397.962463 
	C483.382782,402.883575 483.416290,402.948792 475.931183,395.517029 
	C470.256439,389.882751 464.578857,384.251343 458.915649,378.605469 
	C457.953430,377.646240 456.842346,376.385132 455.532440,377.174591 
	C454.175568,377.992462 455.676575,379.213776 455.836945,380.267120 
	C457.439575,390.793121 459.009277,401.324463 460.696442,411.836914 
	C460.989105,413.660583 460.533386,414.725708 458.811584,415.281799 
	C458.657928,415.331421 458.530823,415.459259 458.386383,415.541962 
	C449.066833,420.881989 448.927917,421.017487 441.291718,413.195953 
	C430.118256,401.751373 419.167480,390.089386 408.097473,378.494568 
	C410.304993,377.353119 413.730469,375.732666 416.998444,373.840240 
	C419.263977,372.528320 419.984009,374.461853 421.023346,375.486023 
	C428.499725,382.853027 435.889557,390.307770 443.358917,397.681976 
	C444.490479,398.799164 445.319214,400.363647 447.623230,400.881104 
	C445.845123,389.334320 444.056427,378.050079 442.414459,366.744507 
	C442.125305,364.753510 440.588104,362.201538 442.758087,360.740784 
	C445.611511,358.820007 448.873474,357.452728 452.091156,356.179657 
	C452.621307,355.969940 453.900421,357.385468 454.704895,358.180054 
	C460.512909,363.916626 466.287872,369.686615 472.325623,375.694336 
z"/>
<path fill="#050505" opacity="1.000000" stroke="none" 
	d="
M681.660522,419.570068 
	C671.055542,436.088318 654.559570,439.380768 639.145935,427.964600 
	C632.204346,422.823303 625.800720,416.959290 619.083740,411.508606 
	C617.421143,410.159424 617.412964,409.289368 618.828735,407.620972 
	C629.702942,394.806671 640.473267,381.903992 651.223206,368.984894 
	C652.480774,367.473633 653.286316,366.873169 655.105896,368.480347 
	C661.714661,374.317657 668.760437,379.679199 675.161926,385.727692 
	C685.445557,395.444366 687.513733,406.891418 681.660522,419.570068 
z"/>
<path fill="#060606" opacity="1.000000" stroke="none" 
	d="
M576.476501,354.568298 
	C587.358215,351.297882 598.103638,355.727112 602.564331,364.967346 
	C607.200256,374.570496 603.678955,388.002533 594.963562,393.961334 
	C586.247864,399.920197 574.622864,398.265167 566.551086,389.861816 
	C564.806274,390.131104 565.975769,393.441101 563.604858,392.915955 
	C560.389954,392.203857 557.137573,391.514069 554.070923,390.362793 
	C553.064636,389.985016 553.876770,388.173553 554.121338,387.106201 
	C558.049866,369.958801 562.086243,352.835999 565.969666,335.678497 
	C566.502686,333.323425 567.369751,332.806793 569.708374,333.267883 
	C578.995911,335.098969 579.016052,335.021576 576.947083,344.221436 
	C576.291687,347.135925 575.570801,350.036041 574.950378,352.957703 
	C574.765320,353.829163 574.318359,355.077148 576.476501,354.568298 
z"/>
<path fill="#050505" opacity="1.000000" stroke="none" 
	d="
M646.580933,647.661072 
	C649.997681,642.781372 654.419312,640.059448 660.599792,638.905151 
	C656.376770,635.035217 652.708679,631.476074 648.814087,628.184937 
	C646.740417,626.432556 646.412476,625.314758 648.430054,623.117065 
	C654.583069,616.414734 654.468811,616.322449 661.237793,622.530273 
	C672.289795,632.666016 683.241577,642.915466 694.479736,652.840698 
	C697.555298,655.556885 697.512085,657.344116 694.568115,659.715332 
	C692.188965,661.631470 690.949646,666.206055 686.530884,662.775635 
	C684.989380,672.648926 678.862427,680.002686 670.343262,681.833191 
	C660.414429,683.966675 652.646484,680.000732 646.861877,672.175110 
	C641.092834,664.370361 641.216064,656.133484 646.580933,647.661072 
z"/>
<path fill="#070707" opacity="1.000000" stroke="none" 
	d="
M401.834625,621.641602 
	C400.372040,617.478027 398.834686,613.792908 396.000153,610.851379 
	C394.278870,609.065125 392.190552,608.086121 389.689728,608.985352 
	C386.938751,609.974548 386.553619,612.405823 386.948517,614.761108 
	C387.963989,620.818115 389.344116,626.813293 390.402283,632.863953 
	C391.454468,638.880493 390.095551,644.180847 384.833435,647.833923 
	C379.259491,651.703430 373.203644,652.309631 367.500549,648.541138 
	C357.124512,641.685059 352.803741,631.329834 351.943359,619.304016 
	C351.635101,614.994873 355.257446,616.681213 357.294556,616.116943 
	C361.208710,615.032715 362.890869,616.383240 362.887146,620.700623 
	C362.882446,626.152771 365.000366,631.101196 368.388367,635.386475 
	C370.392242,637.921082 373.046173,639.440552 376.257935,637.845154 
	C379.163391,636.401917 379.113464,633.630859 378.502899,630.869629 
	C377.462158,626.163208 376.331238,621.475586 375.365295,616.753967 
	C373.499786,607.635559 375.750977,601.629517 382.205475,598.188110 
	C388.857025,594.641663 396.594238,596.071411 402.574127,602.438965 
	C409.934204,610.276184 413.456238,619.827148 413.905731,630.503906 
	C414.182953,637.088684 408.829010,633.911682 405.956818,634.779724 
	C402.202515,635.914307 403.052368,632.891174 403.093689,630.922119 
	C403.157288,627.891235 402.639954,624.956604 401.834625,621.641602 
z"/>
<path fill="#060606" opacity="1.000000" stroke="none" 
	d="
M386.421112,453.749329 
	C385.810486,449.768311 385.532135,445.854767 384.232758,442.316162 
	C380.981354,433.461853 383.529816,426.274445 390.094391,419.524109 
	C391.714417,425.952026 393.632599,432.129120 394.737976,438.448395 
	C395.486053,442.725006 397.208710,443.679443 401.306213,443.061401 
	C409.681091,441.798126 418.133209,441.046814 427.377808,439.990479 
	C424.815826,444.127319 422.504547,447.705048 420.370026,451.385254 
	C419.564575,452.773956 418.449188,452.964539 417.082489,453.129181 
	C412.625305,453.666046 408.169434,454.233368 403.734375,454.925446 
	C401.873322,455.215881 398.567902,454.346130 398.505859,456.357544 
	C398.417908,459.210907 398.357025,462.816071 401.518707,464.850006 
	C401.797302,465.029236 402.128662,465.135590 402.384277,465.339874 
	C404.410797,466.959351 408.672180,467.806458 408.356689,469.807678 
	C407.854370,472.994171 405.056610,475.797638 403.329956,478.820404 
	C402.334290,480.563507 401.346222,479.394348 400.501038,478.872101 
	C385.101349,469.356964 369.745819,459.770203 354.319855,450.298035 
	C352.378937,449.106201 352.540771,448.243011 353.551056,446.449005 
	C358.290955,438.032196 358.220612,437.994446 366.218109,442.939911 
	C372.433563,446.783386 378.651489,450.622772 385.189117,454.600616 
	C385.465759,454.171906 386.536285,454.764221 386.421112,453.749329 
z"/>
<path fill="#050505" opacity="1.000000" stroke="none" 
	d="
M502.441406,707.842712 
	C509.622192,709.328003 509.612366,709.325806 511.132782,702.492920 
	C511.601807,700.385132 512.155457,698.296326 512.644836,696.192932 
	C514.182373,689.585144 514.127258,689.965820 520.668823,690.829468 
	C525.914185,691.521973 526.830688,693.277771 525.527771,698.423218 
	C521.736633,713.394958 518.602051,728.534302 515.314209,743.630676 
	C514.829468,745.856201 514.646362,747.100281 511.620605,746.365967 
	C499.998627,743.545715 488.310211,740.976868 476.588806,738.598877 
	C471.110291,737.487427 474.563232,734.245789 474.612183,731.849060 
	C474.671875,728.923889 475.591095,727.356445 479.191254,728.307800 
	C486.252167,730.173706 493.441956,731.551270 500.576355,733.140259 
	C501.386383,733.320679 502.605530,734.005005 502.921417,733.704834 
	C506.399414,730.399353 505.573303,725.595093 506.898224,721.516174 
	C507.750183,718.893250 505.359467,719.191101 503.852173,718.852295 
	C498.017242,717.540710 492.208740,716.085693 486.333374,714.989929 
	C483.168854,714.399780 482.209808,713.505981 482.804504,709.900513 
	C483.640625,704.831665 485.278717,703.094788 490.410553,704.966431 
	C494.128876,706.322571 498.145508,706.860840 502.441406,707.842712 
z"/>
<path fill="#060606" opacity="1.000000" stroke="none" 
	d="
M359.655762,523.459229 
	C369.317719,522.201538 378.640564,523.037476 387.938843,522.720703 
	C389.980865,522.651184 391.063385,523.197021 390.841187,525.488220 
	C390.681427,527.135620 390.605042,528.844421 390.861755,530.467285 
	C391.338043,533.477966 390.170319,534.828064 386.265137,534.221436 
	C392.079285,540.896729 392.355896,547.783264 390.073029,554.857544 
	C388.223969,560.587585 383.632294,563.686035 378.081818,563.582886 
	C372.438934,563.477966 368.454285,560.297913 366.626862,554.251953 
	C365.062866,549.077698 365.272736,543.716187 365.422119,538.412292 
	C365.521545,534.882874 363.897888,534.908386 361.498199,536.036499 
	C358.442627,537.472900 357.373169,540.213867 357.081085,543.331543 
	C356.683044,547.579895 357.445740,551.661133 359.704132,555.277039 
	C361.591827,558.299500 359.048126,558.818665 357.430450,559.198059 
	C355.361847,559.683228 353.225677,564.092102 351.026947,559.817017 
	C346.407013,550.834534 345.384888,541.423157 349.306458,531.927917 
	C351.100067,527.585083 354.615997,524.780457 359.655762,523.459229 
z"/>
<path fill="#060606" opacity="1.000000" stroke="none" 
	d="
M534.087524,348.852661 
	C544.740845,351.733948 550.638733,358.899353 551.204163,368.690521 
	C551.382385,371.775970 550.466736,372.718475 547.439209,372.863983 
	C538.140869,373.310760 528.856445,374.048340 519.509583,374.676727 
	C521.443909,382.149078 530.973877,384.790466 538.724976,380.431061 
	C540.065063,379.677368 541.006104,377.206207 542.783508,378.355591 
	C544.979248,379.775482 546.953857,381.723358 548.563049,383.800262 
	C549.670227,385.229309 547.674133,386.034393 546.834045,386.829010 
	C539.493164,393.772797 524.015808,394.493774 515.104248,388.388977 
	C506.914581,382.778717 503.725861,371.790344 507.505829,362.204346 
	C511.426910,352.260437 521.791260,346.945007 534.087524,348.852661 
z"/>
<path fill="#060606" opacity="1.000000" stroke="none" 
	d="
M685.497192,467.393066 
	C689.170898,470.791565 685.899902,473.742554 684.905823,476.344299 
	C684.042603,478.603821 681.458740,476.694733 679.851013,475.924713 
	C671.078674,471.723145 664.440063,459.179504 665.650391,449.334106 
	C666.824280,439.783936 673.701050,432.663788 683.692627,430.653198 
	C694.395813,428.499390 705.155273,435.303467 709.112732,446.728363 
	C712.611328,456.828552 708.319763,467.578857 698.946594,472.710419 
	C696.826294,473.871185 695.928711,473.478516 694.769714,471.491211 
	C690.675720,464.471130 686.405151,457.553467 682.158508,450.623413 
	C681.320496,449.255890 680.852478,447.567200 679.231384,446.781281 
	C673.747009,453.747345 676.183899,462.060852 685.497192,467.393066 
z"/>
<path fill="#060606" opacity="1.000000" stroke="none" 
	d="
M623.816772,678.466248 
	C618.797729,680.059143 615.530396,682.957275 613.018005,687.229065 
	C610.601440,691.337891 607.651062,686.978333 604.907288,686.937988 
	C603.032532,686.910461 603.193176,685.656921 603.603088,684.084473 
	C606.403137,673.342102 623.377319,664.703857 635.043518,668.186523 
	C646.446716,671.590759 653.341736,685.485046 648.960022,696.738464 
	C645.533875,705.537720 638.724487,710.565674 629.539917,711.952637 
	C620.578430,713.305847 613.782593,709.452820 608.716187,702.090637 
	C606.785034,699.284302 606.370361,697.620422 610.054321,695.662354 
	C617.959412,691.460571 625.549927,686.666626 633.261963,682.102905 
	C633.536438,681.940491 633.732788,681.646118 634.089966,681.288635 
	C631.392517,678.204651 627.989685,677.630371 623.816772,678.466248 
z"/>
<path fill="#050505" opacity="1.000000" stroke="none" 
	d="
M690.345825,543.346924 
	C692.812622,528.231628 700.943970,520.540833 713.486389,521.059937 
	C725.762329,521.567993 734.934631,531.626526 734.669556,544.289795 
	C734.395264,557.392334 725.362427,566.353394 712.611755,566.361816 
	C709.760559,566.363647 708.568359,565.786438 708.704712,562.502625 
	C709.056946,554.022034 708.950562,545.521851 708.988159,537.029358 
	C708.992310,536.088989 709.079468,534.728088 708.539917,534.294861 
	C707.459656,533.427673 706.364807,534.557983 705.433472,535.155273 
	C700.047607,538.609680 698.418518,547.446960 702.446045,554.019409 
	C705.850830,559.575562 699.907837,559.880676 698.040649,561.978638 
	C695.889099,564.396057 694.903687,560.779053 694.003662,559.500671 
	C690.704651,554.814819 690.067932,549.373108 690.345825,543.346924 
z"/>
<path fill="#050505" opacity="1.000000" stroke="none" 
	d="
M457.234863,670.617432 
	C462.580933,670.286621 467.340668,671.187012 471.650146,674.207336 
	C479.027679,679.377869 481.746674,686.985046 477.923004,695.104858 
	C474.186676,703.039062 469.448364,710.498779 465.238647,718.215210 
	C464.390320,719.770264 463.692749,719.752014 462.156464,719.061829 
	C452.752167,714.836853 452.734680,714.893250 457.858704,705.894653 
	C460.239258,701.713989 462.735291,697.590332 464.917175,693.307495 
	C467.577850,688.084778 466.700928,684.159729 462.633636,681.492432 
	C458.057007,678.491211 452.638031,679.146729 449.434998,683.834290 
	C445.698853,689.302124 442.386902,695.094116 439.313599,700.966736 
	C437.685791,704.077209 436.381500,704.478882 433.366058,702.653076 
	C426.317078,698.385376 426.220856,698.545532 430.382111,691.271240 
	C435.573761,682.195618 440.822296,673.151855 445.912811,664.019897 
	C447.119232,661.855713 448.153748,661.047913 450.410919,662.701172 
	C452.138367,663.966492 454.078461,664.980591 456.021149,665.901428 
	C457.734680,666.713623 457.576843,667.756104 456.739899,669.371643 
	C456.533173,670.052429 456.660156,670.313110 457.234863,670.617432 
z"/>
<path fill="#060606" opacity="1.000000" stroke="none" 
	d="
M674.375854,609.484619 
	C680.554565,591.881775 696.322876,585.611877 709.777771,595.093811 
	C718.847595,601.485535 721.329712,613.057739 715.998535,624.096619 
	C710.701050,635.065796 700.063477,640.190308 689.304077,636.956482 
	C678.269226,633.639771 672.287415,624.106873 673.851807,612.323486 
	C673.961304,611.498962 674.103149,610.678772 674.375854,609.484619 
z"/>
<path fill="#070707" opacity="1.000000" stroke="none" 
	d="
M386.667786,513.783630 
	C374.935059,519.256409 362.592224,515.789673 356.890137,505.692169 
	C351.141510,495.512268 354.332977,480.078461 363.688416,473.945892 
	C365.744781,472.597931 368.323730,469.733337 370.846252,472.342865 
	C372.238831,473.783417 371.879059,476.791046 372.692871,478.947479 
	C373.934296,482.236938 371.178101,482.301971 369.531860,483.346680 
	C364.661469,486.437378 363.046600,493.317627 366.002289,498.283264 
	C369.127594,503.533875 377.500183,505.771484 382.714142,502.749542 
	C387.684875,499.868561 389.588684,493.094910 387.041718,487.952332 
	C386.454407,486.766602 384.183655,485.874878 385.604492,484.222992 
	C387.650635,481.844055 389.847137,479.471008 392.407898,477.723053 
	C393.342377,477.085144 394.608643,479.259949 395.429535,480.423004 
	C401.300446,488.741211 399.016724,502.947693 390.527283,510.856934 
	C389.440063,511.869812 388.175354,512.692139 386.667786,513.783630 
z"/>
<path fill="#060606" opacity="1.000000" stroke="none" 
	d="
M722.063293,472.745209 
	C724.948303,478.035858 722.985046,481.057709 718.657288,483.996613 
	C712.219666,488.368256 706.210999,493.371643 699.040222,498.855286 
	C707.139160,499.980865 714.238281,500.972198 721.339355,501.949036 
	C722.328491,502.085114 723.333130,502.110565 724.320923,502.253998 
	C729.769653,503.045013 733.207947,507.364746 733.039917,512.914551 
	C732.979919,514.895447 731.922668,514.462097 730.738647,514.305786 
	C716.882141,512.476318 703.025696,510.645691 689.161072,508.879578 
	C687.501160,508.668152 687.113831,507.650604 686.611206,506.323425 
	C682.996948,496.779205 682.958252,496.776794 690.987183,490.479218 
	C700.661072,482.891327 710.354675,475.328705 720.453247,467.431763 
	C721.057434,469.364685 721.525269,470.861145 722.063293,472.745209 
z"/>
<path fill="#060606" opacity="1.000000" stroke="none" 
	d="
M386.285706,589.414551 
	C380.484253,590.997925 375.056183,592.566223 369.543152,593.733276 
	C366.907043,594.291321 365.781891,594.919189 366.786926,597.891724 
	C368.433502,602.761475 363.917755,601.411560 361.791046,602.437134 
	C359.286224,603.645081 357.594269,603.025330 357.395325,600.102295 
	C357.135376,596.281860 354.988037,597.378174 352.617981,597.814941 
	C350.584503,598.189575 347.625824,600.330261 346.619263,598.480591 
	C344.942688,595.399963 344.146973,591.548462 344.085693,588.002380 
	C344.054688,586.209473 347.234375,586.190369 349.089264,585.953552 
	C352.906036,585.466187 353.981842,583.691101 352.608276,580.082581 
	C351.927612,578.294373 350.599854,575.516113 351.887848,574.568787 
	C353.872101,573.109314 356.804413,572.663635 359.397919,572.391174 
	C361.641510,572.155457 360.976685,574.555115 361.329803,575.796143 
	C363.229065,582.472351 363.175537,582.494568 370.013275,580.832764 
	C373.076721,580.088318 376.153961,579.388367 379.186768,578.532898 
	C384.335236,577.080750 385.848877,574.291809 383.301514,569.667297 
	C380.423737,564.442932 385.968689,565.154053 387.539825,563.277161 
	C389.688293,560.710571 390.925201,563.495422 391.824280,565.033936 
	C396.706573,573.388611 396.934631,585.265198 386.285706,589.414551 
z"/>
<path fill="#060606" opacity="1.000000" stroke="none" 
	d="
M421.327271,681.345947 
	C416.041565,687.126404 410.931885,692.592346 405.987488,698.203918 
	C404.436249,699.964478 403.542999,700.090515 401.670319,698.450989 
	C394.524719,692.195068 394.426758,692.267578 400.701447,685.403076 
	C411.019379,674.115295 421.443268,662.922852 431.639801,651.526733 
	C433.977020,648.914612 435.309235,648.240723 438.156952,651.070801 
	C443.861938,656.740417 444.079254,656.548035 438.771210,662.355652 
	C433.051758,668.613525 427.303131,674.844727 421.327271,681.345947 
z"/>
<path fill="#060606" opacity="1.000000" stroke="none" 
	d="
M691.787354,569.303101 
	C708.879211,573.222717 725.544250,577.123413 742.269409,580.746826 
	C745.373291,581.419250 746.482666,582.133545 745.622437,585.554138 
	C743.553223,593.782593 743.721863,593.865784 735.464355,592.029053 
	C720.217529,588.637756 704.996338,585.129395 689.730225,581.827942 
	C686.398315,581.107361 685.199158,579.876709 686.678772,576.516052 
	C687.401428,574.874634 687.729004,572.988342 687.880127,571.183105 
	C688.096680,568.595276 689.626404,568.811462 691.787354,569.303101 
z"/>
<path fill="#060606" opacity="1.000000" stroke="none" 
	d="
M399.132111,651.163940 
	C405.799255,645.620544 412.254669,640.373474 418.548889,634.939697 
	C420.543732,633.217590 421.641052,632.853333 423.576843,635.209778 
	C429.354675,642.243103 429.497498,642.158752 422.568329,647.929993 
	C410.554749,657.936096 398.460907,667.846985 386.541443,677.963684 
	C384.188202,679.960999 383.076019,679.811035 381.170563,677.429565 
	C375.734650,670.635925 375.604858,670.720398 382.347717,665.089905 
	C387.837250,660.505920 393.353607,655.954102 399.132111,651.163940 
z"/>
<path fill="#070707" opacity="1.000000" stroke="none" 
	d="
M585.716187,684.867493 
	C594.658020,682.033264 594.648193,682.036255 597.234497,690.622803 
	C600.098999,700.133301 602.812134,709.694885 605.947632,719.115601 
	C607.145203,722.713684 606.293030,724.268921 602.730774,724.736145 
	C602.076843,724.821838 601.415039,724.972534 600.799805,725.206238 
	C597.775146,726.355164 594.745911,727.599731 593.998962,722.087585 
	C591.500916,726.244263 588.575439,728.761475 584.851685,730.464661 
	C582.541443,731.521362 581.170410,731.551331 580.730469,728.583252 
	C580.491272,726.969360 579.773987,725.420959 579.225342,723.859619 
	C578.436646,721.615540 578.776123,720.571960 581.465088,719.664795 
	C588.385193,717.330078 590.573608,712.777222 588.668396,705.571167 
	C587.145691,699.811768 585.387268,694.109314 583.546814,688.442200 
	C582.890259,686.420410 582.990356,685.230042 585.716187,684.867493 
z"/>
<path fill="#070707" opacity="1.000000" stroke="none" 
	d="
M561.199158,689.832825 
	C567.099243,690.546448 570.077087,693.747009 569.576538,698.423340 
	C569.131226,702.582520 565.661194,705.350403 561.186279,705.115845 
	C556.917053,704.892151 553.765503,701.518311 554.080505,697.178345 
	C554.379578,693.057068 556.612671,690.476013 561.199158,689.832825 
z"/>
<path fill="#FBFBFB" opacity="1.000000" stroke="none" 
	d="
M656.644775,422.496826 
	C646.828430,422.939697 641.469421,415.905823 635.012939,410.884888 
	C633.581055,409.771423 634.712280,408.902466 635.428101,408.046783 
	C641.723206,400.520996 648.055542,393.025970 654.294067,385.453583 
	C655.618774,383.845642 656.623413,383.487549 658.281616,385.036743 
	C660.709290,387.304688 663.401062,389.287445 665.870605,391.513519 
	C671.189697,396.308258 674.170715,402.174042 671.859924,409.312225 
	C669.570679,416.383850 664.797668,421.252411 656.644775,422.496826 
z"/>
<path fill="#F9F9F9" opacity="1.000000" stroke="none" 
	d="
M571.915466,368.163239 
	C576.758911,362.471527 582.363464,361.418365 587.436951,364.926880 
	C592.290649,368.283417 593.424988,375.061920 590.135864,381.055145 
	C587.362305,386.108917 581.912292,388.025635 576.453369,385.867035 
	C570.083191,383.348145 568.297424,376.759247 571.915466,368.163239 
z"/>
<path fill="#FBFBFB" opacity="1.000000" stroke="none" 
	d="
M673.093872,668.405823 
	C666.462708,671.482239 661.638184,670.374634 657.305542,665.105835 
	C653.961487,661.039124 653.692444,655.788025 656.622498,651.775208 
	C660.772949,646.091125 667.545349,645.459473 673.149841,650.233582 
	C679.463257,655.611633 679.550598,662.039185 673.093872,668.405823 
z"/>
<path fill="#FFFFFF" opacity="1.000000" stroke="none" 
	d="
M386.280365,453.807220 
	C386.754181,454.168549 387.521698,455.021301 385.759949,454.912964 
	C385.675629,454.525909 385.841400,454.314575 386.280365,453.807220 
z"/>
<path fill="#F5F5F5" opacity="1.000000" stroke="none" 
	d="
M381.022827,538.102417 
	C383.079895,541.433167 383.571838,544.580994 382.329102,547.935059 
	C381.477936,550.232361 379.873199,551.379944 377.393188,551.276733 
	C375.025024,551.178223 373.507660,549.699646 373.262421,547.649170 
	C372.831207,544.043762 372.897095,540.374390 372.840851,536.730469 
	C372.807953,534.597046 374.490875,535.147339 375.710419,535.097412 
	C377.909241,535.007324 379.420837,536.282532 381.022827,538.102417 
z"/>
<path fill="#F5F5F5" opacity="1.000000" stroke="none" 
	d="
M525.983398,366.964478 
	C524.694519,367.017120 523.860779,367.140656 523.045532,367.064941 
	C521.502563,366.921539 519.314331,368.215240 518.567383,366.531464 
	C517.857117,364.930389 519.239563,363.099945 520.357178,361.652802 
	C525.057434,355.566925 537.276550,356.691376 538.964050,365.852325 
	C534.773315,366.218262 530.610168,366.581818 525.983398,366.964478 
z"/>
<path fill="#F5F5F5" opacity="1.000000" stroke="none" 
	d="
M692.234009,441.706940 
	C701.137451,445.665710 702.936096,453.559509 696.436462,460.085846 
	C692.910583,454.285004 689.429993,448.558868 685.766846,442.532227 
	C687.823730,441.364105 689.736389,440.924347 692.234009,441.706940 
z"/>
<path fill="#F5F5F5" opacity="1.000000" stroke="none" 
	d="
M636.797974,688.555298 
	C638.473633,687.880005 638.829163,688.636902 639.004333,689.792664 
	C639.740662,694.650635 637.805969,698.232178 633.721191,700.699402 
	C629.355530,703.336365 624.970459,702.619690 620.183411,698.287292 
	C625.719360,695.057983 631.099670,691.919495 636.797974,688.555298 
z"/>
<path fill="#F5F5F5" opacity="1.000000" stroke="none" 
	d="
M716.189941,539.239868 
	C716.497803,537.221069 715.344299,534.989380 716.964722,534.216125 
	C718.991028,533.249146 720.704041,535.037292 722.112305,536.411682 
	C727.201355,541.378540 725.610596,551.141602 719.331909,553.770752 
	C717.280701,554.629700 715.875977,554.674805 716.030640,551.691589 
	C716.237366,547.705261 716.147217,543.703552 716.189941,539.239868 
z"/>
<path fill="#FFFFFF" opacity="1.000000" stroke="none" 
	d="
M457.280701,670.473022 
	C456.756653,670.956970 455.930176,671.362854 456.436157,669.831909 
	C456.816589,669.847961 456.961121,670.017883 457.280701,670.473022 
z"/>
<path fill="#F9F9F9" opacity="1.000000" stroke="none" 
	d="
M688.572998,622.488281 
	C683.175293,616.789429 682.823181,611.342224 687.265930,606.424927 
	C691.352661,601.901672 698.448547,601.858032 703.862793,606.322998 
	C708.598572,610.228394 709.346619,616.383911 705.695740,621.407104 
	C702.059814,626.409851 696.083618,626.880127 688.572998,622.488281 
z"/>
</svg>